# xmcd
#
# Track frame offsets:
#	150
#	17357
#	37580
#	51216
#	69476
#	83155
#	100065
#	114409
#	125428
#	138105
#	155962
#	168294
#	181728
#	192858
#	208778
#	220679
#	233725
#
# Disc length: 3338 seconds
# Revision: 0
# Processed by: cddbd v1.5.2PL0 Copyright (c) Steve Scherf et al.
# Submitted via: dBpowerAMP V12.0
#
DISCID=d60d0811
DTITLE=Whitaker Sisters - Back to Back
DYEAR=2002
DGENRE=Country
TTITLE0=Born To Fly
TTITLE1=Born To Be Blue
TTITLE2=Coal Miner's Daughter
TTITLE3=Break It To Me Gently
TTITLE4=Hopelessly Devoted To You
TTITLE5=Faded Love
TTITLE6=I Know Where I'm Going
TTITLE7=Leaving On Your Mind
TTITLE8=Kick Down The Door
TTITLE9=Unbreakable Heart
TTITLE10=Love Sick Blues
TTITLE11=The Seeker
TTITLE12=Some Days You Gotta Dance
TTITLE13=Why They Call It Falling
TTITLE14=Your Cheatin' Heart
TTITLE15=Let 'Er Rip
TTITLE16=On A Night Like This
EXTD=
EXTT0=
EXTT1=
EXTT2=
EXTT3=
EXTT4=
EXTT5=
EXTT6=
EXTT7=
EXTT8=
EXTT9=
EXTT10=
EXTT11=
EXTT12=
EXTT13=
EXTT14=
EXTT15=
EXTT16=
PLAYORDER=
